<svg width="199" height="25" viewBox="0 0 199 25" fill="none" xmlns="http://www.w3.org/2000/svg">
<path d="M11.2812 5.14062L5.09375 24H0.109375L8.5625 1.25H11.7344L11.2812 5.14062ZM16.4219 24L10.2188 5.14062L9.71875 1.25H12.9219L21.4219 24H16.4219ZM16.1406 15.5312V19.2031H4.125V15.5312H16.1406ZM32.7106 15.8906H26.9137V12.2344H32.7106C33.6065 12.2344 34.3356 12.0885 34.8981 11.7969C35.4606 11.4948 35.8721 11.0781 36.1325 10.5469C36.3929 10.0156 36.5231 9.41667 36.5231 8.75C36.5231 8.07292 36.3929 7.44271 36.1325 6.85938C35.8721 6.27604 35.4606 5.80729 34.8981 5.45312C34.3356 5.09896 33.6065 4.92188 32.7106 4.92188H28.5387V24H23.8512V1.25H32.7106C34.4919 1.25 36.0179 1.57292 37.2887 2.21875C38.57 2.85417 39.5492 3.73438 40.2262 4.85938C40.9033 5.98438 41.2419 7.27083 41.2419 8.71875C41.2419 10.1875 40.9033 11.4583 40.2262 12.5312C39.5492 13.6042 38.57 14.4323 37.2887 15.0156C36.0179 15.599 34.4919 15.8906 32.7106 15.8906ZM51.0306 17.0156V1.25H55.7025V17.0156C55.7025 18.5365 55.3692 19.8438 54.7025 20.9375C54.0358 22.0208 53.1244 22.8542 51.9681 23.4375C50.8223 24.0208 49.5306 24.3125 48.0931 24.3125C46.6035 24.3125 45.2858 24.0625 44.14 23.5625C42.9942 23.0625 42.0931 22.2969 41.4369 21.2656C40.7806 20.224 40.4525 18.9062 40.4525 17.3125H45.1556C45.1556 18.1458 45.2702 18.8073 45.4994 19.2969C45.739 19.7865 46.0775 20.1354 46.515 20.3438C46.9525 20.5521 47.4785 20.6562 48.0931 20.6562C48.6869 20.6562 49.2025 20.5156 49.64 20.2344C50.0775 19.9531 50.416 19.5417 50.6556 19C50.9056 18.4583 51.0306 17.7969 51.0306 17.0156Z" fill="#FFAD4C"/>
<path d="M72.9987 1.25V24H68.3112V1.25H72.9987ZM82.0612 10.9688V14.625H71.7175V10.9688H82.0612ZM83.155 1.25V4.92188H71.7175V1.25H83.155ZM95.5687 19.9531V7.09375H100.069V24H95.8344L95.5687 19.9531ZM96.0687 16.4844L97.3969 16.4531C97.3969 17.5781 97.2667 18.625 97.0062 19.5938C96.7458 20.5521 96.3552 21.3854 95.8344 22.0938C95.3135 22.7917 94.6573 23.3385 93.8656 23.7344C93.074 24.1198 92.1417 24.3125 91.0687 24.3125C90.2458 24.3125 89.4854 24.1979 88.7875 23.9688C88.1 23.7292 87.5062 23.3594 87.0062 22.8594C86.5167 22.349 86.1312 21.6979 85.85 20.9062C85.5792 20.1042 85.4437 19.1406 85.4437 18.0156V7.09375H89.9437V18.0469C89.9437 18.5469 90.001 18.9688 90.1156 19.3125C90.2406 19.6562 90.4125 19.9375 90.6312 20.1562C90.85 20.375 91.1052 20.5312 91.3969 20.625C91.699 20.7188 92.0323 20.7656 92.3969 20.7656C93.324 20.7656 94.0531 20.5781 94.5844 20.2031C95.126 19.8281 95.5062 19.3177 95.725 18.6719C95.9542 18.0156 96.0687 17.2865 96.0687 16.4844ZM108.326 10.7812V24H103.826V7.09375H108.061L108.326 10.7812ZM113.42 6.98438L113.342 11.1562C113.123 11.125 112.857 11.099 112.545 11.0781C112.243 11.0469 111.967 11.0312 111.717 11.0312C111.081 11.0312 110.529 11.1146 110.061 11.2812C109.602 11.4375 109.217 11.6719 108.904 11.9844C108.602 12.2969 108.373 12.6771 108.217 13.125C108.071 13.5729 107.988 14.0833 107.967 14.6562L107.061 14.375C107.061 13.2812 107.17 12.276 107.389 11.3594C107.607 10.4323 107.925 9.625 108.342 8.9375C108.769 8.25 109.29 7.71875 109.904 7.34375C110.519 6.96875 111.222 6.78125 112.014 6.78125C112.264 6.78125 112.519 6.80208 112.779 6.84375C113.04 6.875 113.253 6.92188 113.42 6.98438ZM120.271 10.7031V24H115.771V7.09375H119.99L120.271 10.7031ZM119.615 14.9531H118.396C118.396 13.7031 118.558 12.5781 118.881 11.5781C119.204 10.5677 119.657 9.70833 120.24 9C120.823 8.28125 121.516 7.73438 122.318 7.35938C123.131 6.97396 124.037 6.78125 125.037 6.78125C125.829 6.78125 126.552 6.89583 127.209 7.125C127.865 7.35417 128.427 7.71875 128.896 8.21875C129.375 8.71875 129.74 9.38021 129.99 10.2031C130.25 11.026 130.381 12.0312 130.381 13.2188V24H125.849V13.2031C125.849 12.4531 125.745 11.8698 125.537 11.4531C125.329 11.0365 125.021 10.7448 124.615 10.5781C124.219 10.401 123.73 10.3125 123.146 10.3125C122.542 10.3125 122.016 10.4323 121.568 10.6719C121.131 10.9115 120.766 11.2448 120.474 11.6719C120.193 12.0885 119.98 12.5781 119.834 13.1406C119.688 13.7031 119.615 14.3073 119.615 14.9531ZM138.872 7.09375V24H134.357V7.09375H138.872ZM134.076 2.6875C134.076 2.03125 134.305 1.48958 134.763 1.0625C135.221 0.635417 135.836 0.421875 136.607 0.421875C137.367 0.421875 137.977 0.635417 138.435 1.0625C138.904 1.48958 139.138 2.03125 139.138 2.6875C139.138 3.34375 138.904 3.88542 138.435 4.3125C137.977 4.73958 137.367 4.95312 136.607 4.95312C135.836 4.95312 135.221 4.73958 134.763 4.3125C134.305 3.88542 134.076 3.34375 134.076 2.6875ZM151.193 7.09375V10.2812H141.349V7.09375H151.193ZM143.786 2.92188H148.286V18.9062C148.286 19.3958 148.349 19.7708 148.474 20.0312C148.609 20.2917 148.807 20.474 149.068 20.5781C149.328 20.6719 149.656 20.7188 150.052 20.7188C150.333 20.7188 150.583 20.7083 150.802 20.6875C151.031 20.6562 151.224 20.625 151.38 20.5938L151.396 23.9062C151.01 24.0312 150.594 24.1302 150.146 24.2031C149.698 24.276 149.203 24.3125 148.661 24.3125C147.672 24.3125 146.807 24.151 146.068 23.8281C145.338 23.4948 144.776 22.9635 144.38 22.2344C143.984 21.5052 143.786 20.5469 143.786 19.3594V2.92188ZM164.075 19.9531V7.09375H168.575V24H164.341L164.075 19.9531ZM164.575 16.4844L165.903 16.4531C165.903 17.5781 165.773 18.625 165.512 19.5938C165.252 20.5521 164.861 21.3854 164.341 22.0938C163.82 22.7917 163.164 23.3385 162.372 23.7344C161.58 24.1198 160.648 24.3125 159.575 24.3125C158.752 24.3125 157.992 24.1979 157.294 23.9688C156.606 23.7292 156.012 23.3594 155.512 22.8594C155.023 22.349 154.637 21.6979 154.356 20.9062C154.085 20.1042 153.95 19.1406 153.95 18.0156V7.09375H158.45V18.0469C158.45 18.5469 158.507 18.9688 158.622 19.3125C158.747 19.6562 158.919 19.9375 159.137 20.1562C159.356 20.375 159.611 20.5312 159.903 20.625C160.205 20.7188 160.539 20.7656 160.903 20.7656C161.83 20.7656 162.559 20.5781 163.091 20.2031C163.632 19.8281 164.012 19.3177 164.231 18.6719C164.46 18.0156 164.575 17.2865 164.575 16.4844ZM176.833 10.7812V24H172.333V7.09375H176.567L176.833 10.7812ZM181.926 6.98438L181.848 11.1562C181.629 11.125 181.364 11.099 181.051 11.0781C180.749 11.0469 180.473 11.0312 180.223 11.0312C179.588 11.0312 179.036 11.1146 178.567 11.2812C178.109 11.4375 177.723 11.6719 177.411 11.9844C177.109 12.2969 176.879 12.6771 176.723 13.125C176.577 13.5729 176.494 14.0833 176.473 14.6562L175.567 14.375C175.567 13.2812 175.676 12.276 175.895 11.3594C176.114 10.4323 176.431 9.625 176.848 8.9375C177.275 8.25 177.796 7.71875 178.411 7.34375C179.025 6.96875 179.728 6.78125 180.52 6.78125C180.77 6.78125 181.025 6.80208 181.286 6.84375C181.546 6.875 181.76 6.92188 181.926 6.98438ZM191.84 24.3125C190.527 24.3125 189.35 24.1042 188.309 23.6875C187.267 23.2604 186.382 22.6719 185.652 21.9219C184.934 21.1719 184.382 20.3021 183.996 19.3125C183.611 18.3125 183.418 17.25 183.418 16.125V15.5C183.418 14.2188 183.6 13.0469 183.965 11.9844C184.33 10.9219 184.85 10 185.527 9.21875C186.215 8.4375 187.048 7.83854 188.027 7.42188C189.007 6.99479 190.111 6.78125 191.34 6.78125C192.538 6.78125 193.6 6.97917 194.527 7.375C195.455 7.77083 196.231 8.33333 196.856 9.0625C197.491 9.79167 197.97 10.6667 198.293 11.6875C198.616 12.6979 198.777 13.8229 198.777 15.0625V16.9375H185.34V13.9375H194.356V13.5938C194.356 12.9688 194.241 12.4115 194.012 11.9219C193.793 11.4219 193.46 11.026 193.012 10.7344C192.564 10.4427 191.991 10.2969 191.293 10.2969C190.699 10.2969 190.189 10.4271 189.762 10.6875C189.335 10.9479 188.986 11.3125 188.715 11.7812C188.455 12.25 188.257 12.8021 188.121 13.4375C187.996 14.0625 187.934 14.75 187.934 15.5V16.125C187.934 16.8021 188.027 17.4271 188.215 18C188.413 18.5729 188.689 19.0677 189.043 19.4844C189.408 19.901 189.845 20.224 190.356 20.4531C190.876 20.6823 191.465 20.7969 192.121 20.7969C192.934 20.7969 193.689 20.6406 194.387 20.3281C195.095 20.0052 195.705 19.5208 196.215 18.875L198.402 21.25C198.048 21.7604 197.564 22.25 196.949 22.7188C196.345 23.1875 195.616 23.5729 194.762 23.875C193.908 24.1667 192.934 24.3125 191.84 24.3125Z" fill="#3A3A3A" fill-opacity="0.8"/>
</svg>
